{"accessors" : [{"bufferView" : 0, "byteOffset" : 0, "componentType" : 5123, "count" : 144, "type" : "SCALAR", "max" : [119], "min" : [0]}, {"bufferView" : 1, "byteOffset" : 0, "componentType" : 5126, "count" : 120, "type" : "VEC3", "max" : [0.20847630500793457, -0.006800651550292969, 0.31608954071998596], "min" : [-0.20847634971141815, -0.603187084197998, 0.011793375015258789], "name" : "POSITION"}, {"bufferView" : 1, "byteOffset" : 12, "componentType" : 5126, "count" : 120, "type" : "VEC3", "max" : [0.9999220371246338, 1.3577576964962645E-06, 1.0000044107437134], "min" : [-0.9999220967292786, -3.203457765721396E-07, -1.0000044107437134], "name" : "NORMAL"}, {"bufferView" : 1, "byteOffset" : 24, "componentType" : 5126, "count" : 120, "type" : "VEC2", "max" : [0.9820029735565186, 1.3695321083068848], "min" : [0.23126238584518433, 1.0226749181747437], "name" : "TEXCOORD_0"}, {"bufferView" : 0, "byteOffset" : 288, "componentType" : 5123, "count" : 2154, "type" : "SCALAR", "max" : [1759], "min" : [0]}, {"bufferView" : 2, "byteOffset" : 0, "componentType" : 5126, "count" : 1760, "type" : "VEC3", "max" : [0.20847630500793457, 0, 0.31608954071998596], "min" : [-0.20847634971141815, -0.6184656620025635, -0], "name" : "POSITION"}, {"bufferView" : 2, "byteOffset" : 12, "componentType" : 5126, "count" : 1760, "type" : "VEC3", "max" : [1.0000044107437134, 1.0000044107437134, 1.0000044107437134], "min" : [-1.0000044107437134, -1.0000044107437134, -1.0000044107437134], "name" : "NORMAL"}, {"bufferView" : 2, "byteOffset" : 24, "componentType" : 5126, "count" : 1760, "type" : "VEC2", "max" : [0.9930795431137085, 1.9802745580673218], "min" : [0.01818830706179142, 1.020316243171692], "name" : "TEXCOORD_0"}, {"bufferView" : 0, "byteOffset" : 4596, "componentType" : 5123, "count" : 756, "type" : "SCALAR", "max" : [626], "min" : [0]}, {"bufferView" : 3, "byteOffset" : 0, "componentType" : 5126, "count" : 627, "type" : "VEC3", "max" : [0.11128634214401245, -0.5906667113304138, 0.3783210515975952], "min" : [-0.11128640919923782, -0.6138058304786682, 0.308140367269516], "name" : "POSITION"}, {"bufferView" : 3, "byteOffset" : 12, "componentType" : 5126, "count" : 627, "type" : "VEC3", "max" : [1.0000044107437134, 1.0000044107437134, 1.0000044107437134], "min" : [-1.0000044107437134, -1.0000044107437134, -1.0000044107437134], "name" : "NORMAL"}, {"bufferView" : 3, "byteOffset" : 24, "componentType" : 5126, "count" : 627, "type" : "VEC2", "max" : [0.19827692210674286, 1.3387044668197632], "min" : [0.0038107428699731827, 1.19341242313385], "name" : "TEXCOORD_0"}, {"bufferView" : 0, "byteOffset" : 6108, "componentType" : 5123, "count" : 2004, "type" : "SCALAR", "max" : [1646], "min" : [0]}, {"bufferView" : 4, "byteOffset" : 0, "componentType" : 5126, "count" : 1647, "type" : "VEC3", "max" : [0.20847630500793457, 0.041934311389923096, 0.31608954071998596], "min" : [-0.20847634971141815, 0, 0.011793375015258789], "name" : "POSITION"}, {"bufferView" : 4, "byteOffset" : 12, "componentType" : 5126, "count" : 1647, "type" : "VEC3", "max" : [0.9999220967292786, 1.0000044107437134, 1.0000044107437134], "min" : [-0.9999220371246338, -1.0000044107437134, -1.0000044107437134], "name" : "NORMAL"}, {"bufferView" : 4, "byteOffset" : 24, "componentType" : 5126, "count" : 1647, "type" : "VEC2", "max" : [0.896346390247345, 1.990250825881958], "min" : [0.006206462159752846, 1.697702407836914], "name" : "TEXCOORD_0"}, {"bufferView" : 0, "byteOffset" : 10116, "componentType" : 5123, "count" : 30, "type" : "SCALAR", "max" : [24], "min" : [0]}, {"bufferView" : 5, "byteOffset" : 0, "componentType" : 5126, "count" : 25, "type" : "VEC3", "max" : [0.07823733240365982, 0.02900320291519165, 0.011793404817581177], "min" : [-0.07823733240365982, 0, -0], "name" : "POSITION"}, {"bufferView" : 5, "byteOffset" : 12, "componentType" : 5126, "count" : 25, "type" : "VEC3", "max" : [1.0000044107437134, 1.0000044107437134, -0], "min" : [-1.0000044107437134, -1.0000044107437134, -1.0000044107437134], "name" : "NORMAL"}, {"bufferView" : 5, "byteOffset" : 24, "componentType" : 5126, "count" : 25, "type" : "VEC2", "max" : [0.1986268162727356, 1.1589571237564087], "min" : [0.16804060339927673, 1.0542337894439697], "name" : "TEXCOORD_0"}], "asset" : {"generator" : "Aspose.3D 24.1.0", "version" : "2.0"}, "buffers" : [{"uri" : "data:application/octet-stream;base64,", "byteLength" : 173016}], "bufferViews" : [{"buffer" : 0, "byteOffset" : 0, "byteLength" : 10176, "target" : 34963}, {"buffer" : 0, "byteOffset" : 10180, "byteLength" : 4608, "byteStride" : 32, "target" : 34962}, {"buffer" : 0, "byteOffset" : 14792, "byteLength" : 68928, "byteStride" : 32, "target" : 34962}, {"buffer" : 0, "byteOffset" : 83724, "byteLength" : 24192, "byteStride" : 32, "target" : 34962}, {"buffer" : 0, "byteOffset" : 107920, "byteLength" : 64128, "byteStride" : 32, "target" : 34962}, {"buffer" : 0, "byteOffset" : 172052, "byteLength" : 960, "byteStride" : 32, "target" : 34962}], "materials" : [{"name" : "Material", "pbrMetallicRoughness" : {"baseColorFactor" : [0.8, 0.8, 0.8, 1], "metallicFactor" : 1, "roughnessFactor" : 0.5}, "emissiveFactor" : [0, 0, 0], "alphaMode" : "OPAQUE", "doubleSided" : true}, {"name" : "Material.001", "pbrMetallicRoughness" : {"baseColorFactor" : [0, 0, 0, 1], "metallicFactor" : 0, "roughnessFactor" : 0.366142}, "emissiveFactor" : [0, 0, 0], "alphaMode" : "OPAQUE", "doubleSided" : true}, {"name" : "Material.002", "pbrMetallicRoughness" : {"baseColorFactor" : [0.233015, 0.233015, 0.233015, 1], "metallicFactor" : 0, "roughnessFactor" : 0.5}, "emissiveFactor" : [0, 0, 0], "alphaMode" : "OPAQUE", "doubleSided" : true}, {"name" : "Material", "pbrMetallicRoughness" : {"baseColorFactor" : [0.8, 0.8, 0.8, 1], "metallicFactor" : 1, "roughnessFactor" : 0.5}, "emissiveFactor" : [0, 0, 0], "alphaMode" : "OPAQUE", "doubleSided" : true}, {"name" : "Material.001", "pbrMetallicRoughness" : {"baseColorFactor" : [0, 0, 0, 1], "metallicFactor" : 0, "roughnessFactor" : 0.366142}, "emissiveFactor" : [0, 0, 0], "alphaMode" : "OPAQUE", "doubleSided" : true}], "meshes" : [{"primitives" : [{"attributes" : {"POSITION" : 1, "NORMAL" : 2, "TEXCOORD_0" : 3}, "indices" : 0, "material" : 0, "mode" : 4}]}, {"primitives" : [{"attributes" : {"POSITION" : 5, "NORMAL" : 6, "TEXCOORD_0" : 7}, "indices" : 4, "material" : 1, "mode" : 4}]}, {"primitives" : [{"attributes" : {"POSITION" : 9, "NORMAL" : 10, "TEXCOORD_0" : 11}, "indices" : 8, "material" : 2, "mode" : 4}]}, {"primitives" : [{"attributes" : {"POSITION" : 13, "NORMAL" : 14, "TEXCOORD_0" : 15}, "indices" : 12, "material" : 3, "mode" : 4}]}, {"primitives" : [{"attributes" : {"POSITION" : 17, "NORMAL" : 18, "TEXCOORD_0" : 19}, "indices" : 16, "material" : 4, "mode" : 4}]}], "nodes" : [{"mesh" : 0, "name" : "Object_4"}, {"mesh" : 1, "name" : "Object_5"}, {"mesh" : 2, "name" : "Object_6"}, {"children" : [0, 1, 2], "matrix" : [1, 0, 0, 0, 0, 1, 0, 0, 0, 0, 1, 0, 0, 0.6184656023979187, -0.20229338109493256, 1], "name" : "13.2 Gallon Kitchen Trash Can_0"}, {"mesh" : 3, "name" : "Object_8"}, {"mesh" : 4, "name" : "Object_9"}, {"children" : [4, 5], "matrix" : [1, 0, -0, 0, -0, -0.28993055686791513, -0.957047685433835, 0, 0, 0.957047685433835, -0.28993055686791513, 0, 0, 0.6184656023979187, -0.20229338109493256, 1], "name" : "13.2 Gallon Kitchen Trash Can.001_1"}, {"children" : [3, 6], "matrix" : [1, 0, 0, 0, 0, 2.220446049250313E-16, 1, 0, 0, -1, 2.220446049250313E-16, 0, 0, 0, 0, 1], "name" : "GLTF_SceneRootNode"}, {"children" : [7], "name" : "root"}, {"children" : [8], "matrix" : [1, 0, 0, 0, 0, 2.220446049250313E-16, -1, 0, 0, 1, 2.220446049250313E-16, 0, 0, 0, 0, 1], "name" : "Sketchfab_model"}], "scene" : 0, "scenes" : [{"nodes" : [9]}]}